<svg width="136" height="32" viewBox="0 0 45 11" fill="none" xmlns="http://www.w3.org/2000/svg">
<path d="M0.432 4.28C0.432 3.728 0.54 3.224 0.756 2.768C0.972 2.312 1.256 1.924 1.608 1.604C1.968 1.276 2.38 1.024 2.844 0.848C3.308 0.664 3.784 0.572 4.272 0.572C4.768 0.572 5.244 0.664 5.7 0.848C6.164 1.024 6.572 1.276 6.924 1.604C7.284 1.924 7.572 2.312 7.788 2.768C8.004 3.224 8.112 3.728 8.112 4.28C8.112 4.832 8.004 5.34 7.788 5.804C7.572 6.26 7.284 6.652 6.924 6.98C6.572 7.3 6.164 7.552 5.7 7.736C5.244 7.912 4.768 8 4.272 8C3.784 8 3.308 7.912 2.844 7.736C2.38 7.552 1.968 7.3 1.608 6.98C1.256 6.652 0.972 6.26 0.756 5.804C0.54 5.34 0.432 4.832 0.432 4.28ZM4.272 1.856C3.944 1.856 3.636 1.924 3.348 2.06C3.068 2.188 2.824 2.364 2.616 2.588C2.408 2.812 2.244 3.072 2.124 3.368C2.004 3.656 1.944 3.96 1.944 4.28C1.944 4.624 2.008 4.944 2.136 5.24C2.264 5.536 2.432 5.792 2.64 6.008C2.856 6.224 3.104 6.396 3.384 6.524C3.664 6.644 3.96 6.704 4.272 6.704C4.592 6.704 4.892 6.644 5.172 6.524C5.452 6.396 5.696 6.224 5.904 6.008C6.12 5.784 6.288 5.524 6.408 5.228C6.536 4.932 6.6 4.616 6.6 4.28C6.6 3.952 6.54 3.644 6.42 3.356C6.308 3.06 6.148 2.804 5.94 2.588C5.732 2.364 5.484 2.188 5.196 2.06C4.916 1.924 4.608 1.856 4.272 1.856ZM8.61919 5.3C8.61919 4.908 8.68719 4.544 8.82319 4.208C8.95919 3.864 9.14719 3.568 9.38719 3.32C9.62719 3.072 9.90719 2.88 10.2272 2.744C10.5552 2.6 10.9112 2.528 11.2952 2.528C11.6552 2.528 11.9832 2.608 12.2792 2.768C12.5832 2.928 12.8392 3.144 13.0472 3.416V0.572H14.4512V8H13.0472V7.184C12.8392 7.456 12.5832 7.672 12.2792 7.832C11.9752 7.992 11.6432 8.072 11.2832 8.072C10.8992 8.072 10.5432 8.004 10.2152 7.868C9.89519 7.724 9.61519 7.528 9.37519 7.28C9.14319 7.032 8.95919 6.74 8.82319 6.404C8.68719 6.06 8.61919 5.692 8.61919 5.3ZM11.5352 3.596C11.3272 3.596 11.1312 3.64 10.9472 3.728C10.7632 3.816 10.6032 3.94 10.4672 4.1C10.3312 4.252 10.2232 4.432 10.1432 4.64C10.0632 4.848 10.0232 5.068 10.0232 5.3C10.0232 5.54 10.0632 5.764 10.1432 5.972C10.2232 6.18 10.3312 6.364 10.4672 6.524C10.6032 6.676 10.7632 6.796 10.9472 6.884C11.1312 6.972 11.3272 7.016 11.5352 7.016C11.7032 7.016 11.8752 6.984 12.0512 6.92C12.2272 6.848 12.3872 6.744 12.5312 6.608C12.6832 6.464 12.8072 6.284 12.9032 6.068C12.9992 5.852 13.0472 5.596 13.0472 5.3C13.0472 5.06 13.0072 4.84 12.9272 4.64C12.8552 4.432 12.7512 4.252 12.6152 4.1C12.4872 3.94 12.3272 3.816 12.1352 3.728C11.9512 3.64 11.7512 3.596 11.5352 3.596ZM15.2718 2.6H16.7718L18.0798 5.924L19.4118 2.6H20.9118L18.5238 8.768C18.4198 9.032 18.2798 9.268 18.1038 9.476C17.9278 9.692 17.7238 9.872 17.4918 10.016C17.2678 10.16 17.0198 10.268 16.7478 10.34C16.4838 10.42 16.2118 10.452 15.9318 10.436V9.092C16.1718 9.092 16.4038 9.02 16.6278 8.876C16.8598 8.74 17.0278 8.544 17.1318 8.288L17.3118 7.856L15.2718 2.6ZM23.7388 5.816C23.2908 5.816 22.9068 5.772 22.5868 5.684C22.2748 5.588 22.0188 5.468 21.8188 5.324C21.6268 5.172 21.4828 5.004 21.3868 4.82C21.2988 4.628 21.2548 4.436 21.2548 4.244C21.2548 4.004 21.3188 3.78 21.4468 3.572C21.5748 3.364 21.7508 3.184 21.9748 3.032C22.1988 2.872 22.4628 2.748 22.7668 2.66C23.0708 2.572 23.3948 2.528 23.7388 2.528C24.1308 2.528 24.4788 2.572 24.7828 2.66C25.0948 2.74 25.3588 2.856 25.5748 3.008C25.7908 3.16 25.9548 3.336 26.0668 3.536C26.1788 3.728 26.2348 3.94 26.2348 4.172H24.6868C24.6868 4.004 24.5948 3.86 24.4108 3.74C24.2268 3.62 24.0028 3.56 23.7388 3.56C23.4268 3.56 23.1788 3.616 22.9948 3.728C22.8108 3.84 22.7188 3.988 22.7188 4.172C22.7188 4.356 22.8068 4.504 22.9828 4.616C23.1588 4.728 23.4108 4.784 23.7388 4.784C24.1548 4.784 24.5188 4.828 24.8308 4.916C25.1428 4.996 25.4028 5.108 25.6108 5.252C25.8188 5.388 25.9748 5.552 26.0788 5.744C26.1828 5.936 26.2348 6.14 26.2348 6.356C26.2348 6.58 26.1748 6.796 26.0548 7.004C25.9428 7.212 25.7788 7.396 25.5628 7.556C25.3468 7.716 25.0828 7.844 24.7708 7.94C24.4668 8.028 24.1228 8.072 23.7388 8.072C23.3948 8.072 23.0708 8.032 22.7668 7.952C22.4628 7.864 22.1988 7.744 21.9748 7.592C21.7508 7.44 21.5748 7.264 21.4468 7.064C21.3188 6.864 21.2548 6.652 21.2548 6.428H22.7908C22.7908 6.596 22.8828 6.74 23.0668 6.86C23.2588 6.98 23.4828 7.04 23.7388 7.04C24.0508 7.04 24.2988 6.98 24.4828 6.86C24.6668 6.74 24.7588 6.596 24.7588 6.428C24.7588 6.244 24.6748 6.096 24.5068 5.984C24.3468 5.872 24.0908 5.816 23.7388 5.816ZM29.6216 5.816C29.1736 5.816 28.7896 5.772 28.4696 5.684C28.1576 5.588 27.9016 5.468 27.7016 5.324C27.5096 5.172 27.3656 5.004 27.2696 4.82C27.1816 4.628 27.1376 4.436 27.1376 4.244C27.1376 4.004 27.2016 3.78 27.3296 3.572C27.4576 3.364 27.6336 3.184 27.8576 3.032C28.0816 2.872 28.3456 2.748 28.6496 2.66C28.9536 2.572 29.2776 2.528 29.6216 2.528C30.0136 2.528 30.3616 2.572 30.6656 2.66C30.9776 2.74 31.2416 2.856 31.4576 3.008C31.6736 3.16 31.8376 3.336 31.9496 3.536C32.0616 3.728 32.1176 3.94 32.1176 4.172H30.5696C30.5696 4.004 30.4776 3.86 30.2936 3.74C30.1096 3.62 29.8856 3.56 29.6216 3.56C29.3096 3.56 29.0616 3.616 28.8776 3.728C28.6936 3.84 28.6016 3.988 28.6016 4.172C28.6016 4.356 28.6896 4.504 28.8656 4.616C29.0416 4.728 29.2936 4.784 29.6216 4.784C30.0376 4.784 30.4016 4.828 30.7136 4.916C31.0256 4.996 31.2856 5.108 31.4936 5.252C31.7016 5.388 31.8576 5.552 31.9616 5.744C32.0656 5.936 32.1176 6.14 32.1176 6.356C32.1176 6.58 32.0576 6.796 31.9376 7.004C31.8256 7.212 31.6616 7.396 31.4456 7.556C31.2296 7.716 30.9656 7.844 30.6536 7.94C30.3496 8.028 30.0056 8.072 29.6216 8.072C29.2776 8.072 28.9536 8.032 28.6496 7.952C28.3456 7.864 28.0816 7.744 27.8576 7.592C27.6336 7.44 27.4576 7.264 27.3296 7.064C27.2016 6.864 27.1376 6.652 27.1376 6.428H28.6736C28.6736 6.596 28.7656 6.74 28.9496 6.86C29.1416 6.98 29.3656 7.04 29.6216 7.04C29.9336 7.04 30.1816 6.98 30.3656 6.86C30.5496 6.74 30.6416 6.596 30.6416 6.428C30.6416 6.244 30.5576 6.096 30.3896 5.984C30.2296 5.872 29.9736 5.816 29.6216 5.816ZM32.9124 5.3C32.9124 4.916 32.9884 4.556 33.1404 4.22C33.3004 3.884 33.5124 3.592 33.7764 3.344C34.0404 3.088 34.3484 2.888 34.7004 2.744C35.0604 2.6 35.4404 2.528 35.8404 2.528C36.2964 2.528 36.7124 2.612 37.0884 2.78C37.4644 2.94 37.7804 3.164 38.0364 3.452C38.3004 3.732 38.4884 4.06 38.6004 4.436C38.7204 4.804 38.7524 5.2 38.6964 5.624H34.3524C34.3764 5.8 34.4244 5.968 34.4964 6.128C34.5764 6.28 34.6764 6.416 34.7964 6.536C34.9244 6.656 35.0764 6.752 35.2524 6.824C35.4284 6.896 35.6244 6.932 35.8404 6.932C36.1204 6.932 36.3724 6.872 36.5964 6.752C36.8204 6.632 36.9884 6.468 37.1004 6.26L38.5284 6.308C38.4244 6.556 38.2884 6.788 38.1204 7.004C37.9524 7.22 37.7524 7.408 37.5204 7.568C37.2964 7.72 37.0444 7.844 36.7644 7.94C36.4844 8.028 36.1764 8.072 35.8404 8.072C35.4164 8.072 35.0244 8 34.6644 7.856C34.3124 7.712 34.0044 7.516 33.7404 7.268C33.4844 7.02 33.2804 6.728 33.1284 6.392C32.9844 6.048 32.9124 5.684 32.9124 5.3ZM37.2804 4.808C37.2084 4.424 37.0444 4.124 36.7884 3.908C36.5324 3.684 36.2164 3.572 35.8404 3.572C35.4484 3.572 35.1244 3.696 34.8684 3.944C34.6204 4.184 34.4684 4.472 34.4124 4.808H37.2804ZM39.096 2.6H40.596L41.904 5.924L43.236 2.6H44.736L42.348 8.768C42.244 9.032 42.104 9.268 41.928 9.476C41.752 9.692 41.548 9.872 41.316 10.016C41.092 10.16 40.844 10.268 40.572 10.34C40.308 10.42 40.036 10.452 39.756 10.436V9.092C39.996 9.092 40.228 9.02 40.452 8.876C40.684 8.74 40.852 8.544 40.956 8.288L41.136 7.856L39.096 2.6Z" fill="white"/>
</svg>
